<svg xmlns="http://www.w3.org/2000/svg" viewBox="0 0 131.92 153.26"><defs><style>.cls-1{isolation:isolate;}.cls-2{fill:#42c9a8;}.cls-3{fill:#a7e8d8;}.cls-4{opacity:0.1;mix-blend-mode:multiply;}</style></defs><g class="cls-1"><g id="Object"><path class="cls-2" d="M716,351.51c-9.67.25-18.6-4.37-25.8-9.79s-13.41-11.84-21.34-16.49a32.09,32.09,0,0,0-36,0c-7.93,4.65-14.13,11.07-21.34,16.49s-16.13,10-25.8,9.79c-2,22.61-.77,44.65,9.14,65.73a116.69,116.69,0,0,0,49.49,52.41q3.2,1.74,6.54,3.3,3.33-1.56,6.53-3.3a116.69,116.69,0,0,0,49.49-52.41C716.78,396.16,718,374.12,716,351.51Z" transform="translate(-584.88 -319.69)"/><path class="cls-3" d="M650.85,464.49a1,1,0,0,1-.46-.11c-.84-.43-1.66-.87-2.48-1.31a109.5,109.5,0,0,1-46.3-49c-7.39-15.72-10.15-32.61-9-54.76a1,1,0,0,1,.81-.93c7.41-1.39,15-5,22.53-10.65,2.78-2.09,5.39-4.29,7.9-6.42a93.47,93.47,0,0,1,12.73-9.59,24.69,24.69,0,0,1,28.45,0,93.51,93.51,0,0,1,12.72,9.58c2.52,2.14,5.13,4.34,7.91,6.43,7.54,5.68,15.12,9.26,22.53,10.65a1,1,0,0,1,.81.93c1.19,22.15-1.57,39-9,54.76h0a109.5,109.5,0,0,1-46.3,49c-.82.44-1.64.88-2.48,1.31A1,1,0,0,1,650.85,464.49ZM594.61,360.17c-1.07,21.43,1.66,37.81,8.81,53a107.42,107.42,0,0,0,45.45,48.11q1,.54,2,1.05c.66-.34,1.32-.69,2-1.05a107.42,107.42,0,0,0,45.45-48.11h0c7.16-15.22,9.88-31.6,8.81-53-7.46-1.54-15.05-5.19-22.59-10.86-2.82-2.13-5.45-4.35-8-6.49a91.94,91.94,0,0,0-12.45-9.39,22.71,22.71,0,0,0-26.43,0,92,92,0,0,0-12.44,9.38c-2.54,2.15-5.17,4.37-8,6.5C609.66,355,602.07,358.63,594.61,360.17Zm104.57,53.45h0Z" transform="translate(-584.88 -319.69)"/><path class="cls-4" d="M657.38,469.65a116.69,116.69,0,0,0,49.49-52.41c9.91-21.08,11.11-43.12,9.14-65.73-9.67.25-18.6-4.37-25.8-9.79s-13.41-11.84-21.34-16.49a39.46,39.46,0,0,0-18-5.54V473Q654.18,471.39,657.38,469.65Z" transform="translate(-584.88 -319.69)"/></g></g></svg>